<mxfile host="app.diagrams.net" modified="2024-02-19T20:22:48.207Z" agent="Mozilla/5.0 (Macintosh; Intel Mac OS X 10_15_7) AppleWebKit/537.36 (KHTML, like Gecko) Chrome/121.0.0.0 Safari/537.36" etag="0FDJOkQuRu_2oriUmUBn" version="23.1.5" type="device">
  <diagram id="R2lEEEUBdFMjLlhIrx00" name="Page-1">
    <mxGraphModel dx="1674" dy="761" grid="1" gridSize="10" guides="1" tooltips="1" connect="1" arrows="1" fold="1" page="1" pageScale="1" pageWidth="850" pageHeight="1100" math="0" shadow="0" extFonts="Permanent Marker^https://fonts.googleapis.com/css?family=Permanent+Marker">
      <root>
        <mxCell id="0" />
        <mxCell id="1" parent="0" />
        <mxCell id="UsyBkcnj87DldpoOLnzl-3" value="" style="image;html=1;image=img/lib/clip_art/networking/Wireless_Router_128x128.png" vertex="1" parent="1">
          <mxGeometry x="175" y="20" width="80" height="80" as="geometry" />
        </mxCell>
        <mxCell id="UsyBkcnj87DldpoOLnzl-9" style="rounded=0;orthogonalLoop=1;jettySize=auto;html=1;entryX=0;entryY=0.75;entryDx=0;entryDy=0;shape=link;" edge="1" parent="1" source="UsyBkcnj87DldpoOLnzl-4" target="UsyBkcnj87DldpoOLnzl-3">
          <mxGeometry relative="1" as="geometry" />
        </mxCell>
        <mxCell id="UsyBkcnj87DldpoOLnzl-4" value="ESP32" style="pointerEvents=1;shadow=0;dashed=0;html=1;strokeColor=none;fillColor=#4495D1;labelPosition=center;verticalLabelPosition=bottom;verticalAlign=top;align=center;outlineConnect=0;shape=mxgraph.veeam.cpu;" vertex="1" parent="1">
          <mxGeometry x="60" y="130" width="44.8" height="44.8" as="geometry" />
        </mxCell>
        <mxCell id="UsyBkcnj87DldpoOLnzl-8" value="&lt;meta charset=&quot;utf-8&quot;&gt;&lt;span style=&quot;color: rgb(0, 0, 0); font-family: Helvetica; font-size: 12px; font-style: normal; font-variant-ligatures: normal; font-variant-caps: normal; font-weight: 400; letter-spacing: normal; orphans: 2; text-align: center; text-indent: 0px; text-transform: none; widows: 2; word-spacing: 0px; -webkit-text-stroke-width: 0px; background-color: rgb(251, 251, 251); text-decoration-thickness: initial; text-decoration-style: initial; text-decoration-color: initial; float: none; display: inline !important;&quot;&gt;Browser&lt;/span&gt;" style="image;aspect=fixed;html=1;points=[];align=center;fontSize=12;image=img/lib/azure2/general/Browser.svg;" vertex="1" parent="1">
          <mxGeometry x="340" y="126.4" width="65" height="52" as="geometry" />
        </mxCell>
        <mxCell id="UsyBkcnj87DldpoOLnzl-13" style="rounded=0;orthogonalLoop=1;jettySize=auto;html=1;entryX=-0.031;entryY=0.435;entryDx=0;entryDy=0;entryPerimeter=0;shape=link;exitX=1;exitY=0.75;exitDx=0;exitDy=0;" edge="1" parent="1" source="UsyBkcnj87DldpoOLnzl-3" target="UsyBkcnj87DldpoOLnzl-8">
          <mxGeometry relative="1" as="geometry">
            <mxPoint x="260" y="110" as="sourcePoint" />
          </mxGeometry>
        </mxCell>
        <mxCell id="UsyBkcnj87DldpoOLnzl-43" style="rounded=0;orthogonalLoop=1;jettySize=auto;html=1;shape=link;" edge="1" parent="1" source="UsyBkcnj87DldpoOLnzl-15" target="UsyBkcnj87DldpoOLnzl-21">
          <mxGeometry relative="1" as="geometry" />
        </mxCell>
        <mxCell id="UsyBkcnj87DldpoOLnzl-15" value="Wifi Router" style="image;html=1;image=img/lib/clip_art/networking/Wireless_Router_128x128.png" vertex="1" parent="1">
          <mxGeometry x="524.2" y="670" width="80" height="80" as="geometry" />
        </mxCell>
        <mxCell id="UsyBkcnj87DldpoOLnzl-23" style="rounded=0;orthogonalLoop=1;jettySize=auto;html=1;entryX=0;entryY=0.75;entryDx=0;entryDy=0;shape=link;" edge="1" parent="1" source="UsyBkcnj87DldpoOLnzl-17" target="UsyBkcnj87DldpoOLnzl-15">
          <mxGeometry relative="1" as="geometry" />
        </mxCell>
        <mxCell id="UsyBkcnj87DldpoOLnzl-17" value="ESP32" style="pointerEvents=1;shadow=0;dashed=0;html=1;strokeColor=none;fillColor=#4495D1;labelPosition=center;verticalLabelPosition=bottom;verticalAlign=top;align=center;outlineConnect=0;shape=mxgraph.veeam.cpu;" vertex="1" parent="1">
          <mxGeometry x="435" y="771.55" width="44.8" height="44.8" as="geometry" />
        </mxCell>
        <mxCell id="UsyBkcnj87DldpoOLnzl-18" style="rounded=0;orthogonalLoop=1;jettySize=auto;html=1;shape=link;" edge="1" parent="1" source="UsyBkcnj87DldpoOLnzl-19" target="UsyBkcnj87DldpoOLnzl-21">
          <mxGeometry relative="1" as="geometry">
            <mxPoint x="689.9564372044142" y="628.55" as="targetPoint" />
          </mxGeometry>
        </mxCell>
        <mxCell id="UsyBkcnj87DldpoOLnzl-19" value="Browser" style="image;aspect=fixed;html=1;points=[];align=center;fontSize=12;image=img/lib/azure2/general/Browser.svg;" vertex="1" parent="1">
          <mxGeometry x="724.2" y="764.3499999999999" width="65" height="52" as="geometry" />
        </mxCell>
        <mxCell id="UsyBkcnj87DldpoOLnzl-21" value="Cloud Server&lt;div&gt;&lt;br/&gt;&lt;/div&gt;" style="sketch=0;pointerEvents=1;shadow=0;dashed=0;html=1;strokeColor=none;fillColor=#505050;labelPosition=center;verticalLabelPosition=bottom;verticalAlign=top;outlineConnect=0;align=center;shape=mxgraph.office.servers.web_server_blue;" vertex="1" parent="1">
          <mxGeometry x="660" y="610" width="48" height="57" as="geometry" />
        </mxCell>
        <mxCell id="UsyBkcnj87DldpoOLnzl-25" value="WiFi" style="text;html=1;align=center;verticalAlign=middle;whiteSpace=wrap;rounded=0;" vertex="1" parent="1">
          <mxGeometry x="185" y="100" width="60" height="30" as="geometry" />
        </mxCell>
        <mxCell id="UsyBkcnj87DldpoOLnzl-46" style="rounded=0;orthogonalLoop=1;jettySize=auto;html=1;shape=link;" edge="1" parent="1" source="UsyBkcnj87DldpoOLnzl-36" target="UsyBkcnj87DldpoOLnzl-45">
          <mxGeometry relative="1" as="geometry" />
        </mxCell>
        <mxCell id="UsyBkcnj87DldpoOLnzl-36" value="ESP32" style="pointerEvents=1;shadow=0;dashed=0;html=1;strokeColor=none;fillColor=#4495D1;labelPosition=center;verticalLabelPosition=bottom;verticalAlign=top;align=center;outlineConnect=0;shape=mxgraph.veeam.cpu;" vertex="1" parent="1">
          <mxGeometry x="56.8" y="376.79999999999995" width="44.8" height="44.8" as="geometry" />
        </mxCell>
        <mxCell id="UsyBkcnj87DldpoOLnzl-37" value="socket" style="rounded=0;orthogonalLoop=1;jettySize=auto;html=1;shape=link;entryX=1;entryY=0.5;entryDx=0;entryDy=0;" edge="1" parent="1" source="UsyBkcnj87DldpoOLnzl-47" target="UsyBkcnj87DldpoOLnzl-45">
          <mxGeometry relative="1" as="geometry">
            <mxPoint x="255" y="332.6539682539683" as="targetPoint" />
            <mxPoint x="340" y="390.31318640268955" as="sourcePoint" />
          </mxGeometry>
        </mxCell>
        <mxCell id="UsyBkcnj87DldpoOLnzl-40" value="Access Point" style="text;html=1;align=center;verticalAlign=middle;whiteSpace=wrap;rounded=0;" vertex="1" parent="1">
          <mxGeometry x="50.80000000000001" y="260" width="60" height="30" as="geometry" />
        </mxCell>
        <mxCell id="UsyBkcnj87DldpoOLnzl-45" value="" style="shape=image;html=1;verticalAlign=top;verticalLabelPosition=bottom;labelBackgroundColor=#ffffff;imageAspect=0;aspect=fixed;image=https://cdn3.iconfinder.com/data/icons/belidong-hotel/32/Artboard_16-128.png" vertex="1" parent="1">
          <mxGeometry x="56.8" y="302" width="48" height="48" as="geometry" />
        </mxCell>
        <mxCell id="UsyBkcnj87DldpoOLnzl-47" value="NovaSoft" style="verticalLabelPosition=bottom;sketch=0;aspect=fixed;html=1;verticalAlign=top;strokeColor=none;align=center;outlineConnect=0;shape=mxgraph.citrix.laptop_2;" vertex="1" parent="1">
          <mxGeometry x="319" y="357.47" width="86" height="64.13" as="geometry" />
        </mxCell>
        <mxCell id="UsyBkcnj87DldpoOLnzl-51" style="rounded=0;orthogonalLoop=1;jettySize=auto;html=1;shape=link;width=-2;entryX=0.44;entryY=0.873;entryDx=0;entryDy=0;entryPerimeter=0;" edge="1" parent="1" source="UsyBkcnj87DldpoOLnzl-52" target="UsyBkcnj87DldpoOLnzl-58">
          <mxGeometry relative="1" as="geometry">
            <mxPoint x="483.4754098360656" y="370" as="targetPoint" />
          </mxGeometry>
        </mxCell>
        <mxCell id="UsyBkcnj87DldpoOLnzl-52" value="ESP32" style="pointerEvents=1;shadow=0;dashed=0;html=1;strokeColor=none;fillColor=#4495D1;labelPosition=center;verticalLabelPosition=bottom;verticalAlign=top;align=center;outlineConnect=0;shape=mxgraph.veeam.cpu;" vertex="1" parent="1">
          <mxGeometry x="457.2" y="396.79999999999995" width="44.8" height="44.8" as="geometry" />
        </mxCell>
        <mxCell id="UsyBkcnj87DldpoOLnzl-53" style="rounded=0;orthogonalLoop=1;jettySize=auto;html=1;shape=link;entryX=0.96;entryY=0.473;entryDx=0;entryDy=0;entryPerimeter=0;" edge="1" parent="1" source="UsyBkcnj87DldpoOLnzl-56" target="UsyBkcnj87DldpoOLnzl-58">
          <mxGeometry relative="1" as="geometry">
            <mxPoint x="507.99999999999994" y="346" as="targetPoint" />
            <mxPoint x="743.2" y="410.31318640268955" as="sourcePoint" />
          </mxGeometry>
        </mxCell>
        <mxCell id="UsyBkcnj87DldpoOLnzl-59" value="Serial" style="edgeLabel;html=1;align=center;verticalAlign=middle;resizable=0;points=[];" vertex="1" connectable="0" parent="UsyBkcnj87DldpoOLnzl-53">
          <mxGeometry x="0.057" y="-6" relative="1" as="geometry">
            <mxPoint as="offset" />
          </mxGeometry>
        </mxCell>
        <mxCell id="UsyBkcnj87DldpoOLnzl-54" value="Bluetooth" style="text;html=1;align=center;verticalAlign=middle;whiteSpace=wrap;rounded=0;" vertex="1" parent="1">
          <mxGeometry x="454" y="280" width="60" height="30" as="geometry" />
        </mxCell>
        <mxCell id="UsyBkcnj87DldpoOLnzl-56" value="NovaSoft" style="verticalLabelPosition=bottom;sketch=0;aspect=fixed;html=1;verticalAlign=top;strokeColor=none;align=center;outlineConnect=0;shape=mxgraph.citrix.laptop_2;" vertex="1" parent="1">
          <mxGeometry x="722.2" y="377.47" width="86" height="64.13" as="geometry" />
        </mxCell>
        <mxCell id="UsyBkcnj87DldpoOLnzl-58" value="" style="html=1;strokeWidth=1;shadow=0;dashed=0;shape=mxgraph.ios7.misc.bluetooth;fillColor=#007AFF;strokeColor=none;buttonText=;strokeColor2=#222222;fontColor=#222222;fontSize=8;verticalLabelPosition=bottom;verticalAlign=top;align=center;sketch=0;" vertex="1" parent="1">
          <mxGeometry x="457.2" y="310" width="50" height="55" as="geometry" />
        </mxCell>
        <mxCell id="UsyBkcnj87DldpoOLnzl-60" style="rounded=0;orthogonalLoop=1;jettySize=auto;html=1;shape=link;" edge="1" parent="1" source="UsyBkcnj87DldpoOLnzl-61" target="UsyBkcnj87DldpoOLnzl-64">
          <mxGeometry relative="1" as="geometry" />
        </mxCell>
        <mxCell id="UsyBkcnj87DldpoOLnzl-61" value="ESP32" style="pointerEvents=1;shadow=0;dashed=0;html=1;strokeColor=none;fillColor=#4495D1;labelPosition=center;verticalLabelPosition=bottom;verticalAlign=top;align=center;outlineConnect=0;shape=mxgraph.veeam.cpu;" vertex="1" parent="1">
          <mxGeometry x="460" y="136.79999999999995" width="44.8" height="44.8" as="geometry" />
        </mxCell>
        <mxCell id="UsyBkcnj87DldpoOLnzl-62" style="rounded=0;orthogonalLoop=1;jettySize=auto;html=1;shape=link;entryX=0.5;entryY=1;entryDx=0;entryDy=0;" edge="1" parent="1" source="UsyBkcnj87DldpoOLnzl-65" target="UsyBkcnj87DldpoOLnzl-64">
          <mxGeometry relative="1" as="geometry">
            <mxPoint x="658.2" y="92.65396825396829" as="targetPoint" />
            <mxPoint x="743.2" y="150.31318640268955" as="sourcePoint" />
          </mxGeometry>
        </mxCell>
        <mxCell id="UsyBkcnj87DldpoOLnzl-63" value="Hotspot" style="text;html=1;align=center;verticalAlign=middle;whiteSpace=wrap;rounded=0;" vertex="1" parent="1">
          <mxGeometry x="735.2" y="10" width="60" height="30" as="geometry" />
        </mxCell>
        <mxCell id="UsyBkcnj87DldpoOLnzl-64" value="" style="shape=image;html=1;verticalAlign=top;verticalLabelPosition=bottom;labelBackgroundColor=#ffffff;imageAspect=0;aspect=fixed;image=https://cdn3.iconfinder.com/data/icons/belidong-hotel/32/Artboard_16-128.png" vertex="1" parent="1">
          <mxGeometry x="741.2" y="50" width="48" height="48" as="geometry" />
        </mxCell>
        <mxCell id="UsyBkcnj87DldpoOLnzl-65" value="NovaSoft" style="verticalLabelPosition=bottom;sketch=0;aspect=fixed;html=1;verticalAlign=top;strokeColor=none;align=center;outlineConnect=0;shape=mxgraph.citrix.laptop_2;" vertex="1" parent="1">
          <mxGeometry x="722.2" y="127.13000000000005" width="86" height="64.13" as="geometry" />
        </mxCell>
        <mxCell id="UsyBkcnj87DldpoOLnzl-67" style="rounded=0;orthogonalLoop=1;jettySize=auto;html=1;shape=link;entryX=0.5;entryY=1;entryDx=0;entryDy=0;" edge="1" parent="1" source="UsyBkcnj87DldpoOLnzl-68" target="UsyBkcnj87DldpoOLnzl-73">
          <mxGeometry relative="1" as="geometry">
            <mxPoint x="70.4754098360656" y="610" as="targetPoint" />
          </mxGeometry>
        </mxCell>
        <mxCell id="UsyBkcnj87DldpoOLnzl-68" value="ESP32" style="pointerEvents=1;shadow=0;dashed=0;html=1;strokeColor=none;fillColor=#4495D1;labelPosition=center;verticalLabelPosition=bottom;verticalAlign=top;align=center;outlineConnect=0;shape=mxgraph.veeam.cpu;" vertex="1" parent="1">
          <mxGeometry x="47" y="636.8" width="44.8" height="44.8" as="geometry" />
        </mxCell>
        <mxCell id="UsyBkcnj87DldpoOLnzl-69" value="" style="rounded=0;orthogonalLoop=1;jettySize=auto;html=1;shape=link;entryX=1;entryY=0.5;entryDx=0;entryDy=0;" edge="1" parent="1" source="UsyBkcnj87DldpoOLnzl-72" target="UsyBkcnj87DldpoOLnzl-73">
          <mxGeometry relative="1" as="geometry">
            <mxPoint x="94.99999999999996" y="586" as="targetPoint" />
            <mxPoint x="330.2" y="650.3131864026896" as="sourcePoint" />
          </mxGeometry>
        </mxCell>
        <mxCell id="UsyBkcnj87DldpoOLnzl-70" value="On Chip Web Server" style="text;html=1;align=center;verticalAlign=middle;whiteSpace=wrap;rounded=0;" vertex="1" parent="1">
          <mxGeometry x="34.8" y="530" width="69.2" height="30" as="geometry" />
        </mxCell>
        <mxCell id="UsyBkcnj87DldpoOLnzl-72" value="NovaSoft" style="verticalLabelPosition=bottom;sketch=0;aspect=fixed;html=1;verticalAlign=top;strokeColor=none;align=center;outlineConnect=0;shape=mxgraph.citrix.laptop_2;" vertex="1" parent="1">
          <mxGeometry x="309.2" y="617.47" width="86" height="64.13" as="geometry" />
        </mxCell>
        <mxCell id="UsyBkcnj87DldpoOLnzl-73" value="" style="shape=image;html=1;verticalAlign=top;verticalLabelPosition=bottom;labelBackgroundColor=#ffffff;imageAspect=0;aspect=fixed;image=https://cdn1.iconfinder.com/data/icons/unicons-line-vol-5/24/react-128.png" vertex="1" parent="1">
          <mxGeometry x="48.500000000000014" y="560" width="45" height="45" as="geometry" />
        </mxCell>
        <mxCell id="UsyBkcnj87DldpoOLnzl-78" value="With wifi router" style="text;html=1;align=center;verticalAlign=middle;whiteSpace=wrap;rounded=0;" vertex="1" parent="1">
          <mxGeometry x="170" y="174.8" width="85" height="30" as="geometry" />
        </mxCell>
        <mxCell id="UsyBkcnj87DldpoOLnzl-79" value="Mobile Device as WiFi Router" style="text;html=1;align=center;verticalAlign=middle;whiteSpace=wrap;rounded=0;" vertex="1" parent="1">
          <mxGeometry x="540" y="191.26" width="120" height="30" as="geometry" />
        </mxCell>
        <mxCell id="UsyBkcnj87DldpoOLnzl-81" value="Communication between BT" style="text;html=1;align=center;verticalAlign=middle;whiteSpace=wrap;rounded=0;" vertex="1" parent="1">
          <mxGeometry x="560" y="470" width="120" height="30" as="geometry" />
        </mxCell>
        <mxCell id="UsyBkcnj87DldpoOLnzl-82" value="Communication between WiFi" style="text;html=1;align=center;verticalAlign=middle;whiteSpace=wrap;rounded=0;" vertex="1" parent="1">
          <mxGeometry x="155" y="450" width="120" height="30" as="geometry" />
        </mxCell>
        <mxCell id="UsyBkcnj87DldpoOLnzl-83" value="WiFi can be provided by AP, wireless Router or Hotspot" style="text;html=1;align=center;verticalAlign=middle;whiteSpace=wrap;rounded=0;" vertex="1" parent="1">
          <mxGeometry x="152.5" y="720" width="120" height="30" as="geometry" />
        </mxCell>
        <mxCell id="UsyBkcnj87DldpoOLnzl-84" value="Remotely" style="text;html=1;align=center;verticalAlign=middle;whiteSpace=wrap;rounded=0;" vertex="1" parent="1">
          <mxGeometry x="540" y="830" width="120" height="30" as="geometry" />
        </mxCell>
      </root>
    </mxGraphModel>
  </diagram>
</mxfile>
